<?xml version="1.0" encoding="UTF-8"?>
<svg width="1e3" height="1e3" version="1.1" xml:space="preserve" xmlns="http://www.w3.org/2000/svg"><rect x="188" y="246" width="623" height="508" ry="0" fill="#fff" stroke-linecap="round" stroke-linejoin="round" stroke-miterlimit="0" stroke-width="1.75"/><path d="m246 0c-137 0-246 110-246 246v507c0 137 110 246 246 246h507c137 0 246-110 246-246v-507c0-137-110-246-246-246h-507zm255 250c31.4 0.0886 61.5 7.82 85.8 22.1 15.9 9.31 43.2 37 53.1 53.9 14.7 25 27.4 63.1 30.6 92 1.31 11.7 1.16 12.3-4.36 17-7.46 6.28-15.2 20.8-19 35.5-2.38 9.37-9.08 70-9.08 82.2 0 1.86-3.17 0.394-9.29-4.3-29.3-22.4-86.1-39.8-130-39.8-41.1 0-91.9 15.3-125 37.7-7.26 4.91-13.2 7.9-13.2 6.65 0-1.25-1.37-18.1-3.05-37.5-4.14-47.7-9.1-64.2-23.9-79.7l-6.99-7.29 2.38-15.6c5.61-36.7 21.8-76.5 41.6-103 29.4-38.7 76.4-60.4 131-60.3zm-236 174c14.9 0 19.3 0.785 28.7 5.17 20.6 9.59 35.2 26.7 41.5 48.6 1.7 5.9 8.37 64 14.8 129 6.45 65.1 12.2 122 12.9 127 0.906 6.63 0.348 8.98-2.89 12.2-3.49 3.49-6.47 4.02-22.6 4.02-16 0-19.1-0.549-22.5-3.91-3.53-3.53-3.91-6.52-3.91-30.7v-26.8l-21.2-48.1c-11.7-26.4-22.3-50.9-23.7-54.4-2.57-6.53-3.71-7.16-16.7-9.35-4.3-0.723-12.9-4.01-19.1-7.31-44.2-23.5-52.1-91-14.7-126 5.22-4.89 14.5-11.2 20.7-14.1 9.51-4.43 13.8-5.21 28.8-5.21zm468 0c15 0 19.3 0.78 28.8 5.21 29.8 13.9 46.4 43.3 44 78-1.24 18.1-8.47 35.7-19.8 48.2-8.18 9.05-26.2 19.2-37.4 21.1-13 2.19-14.2 2.82-16.7 9.35-1.36 3.46-12 28-23.7 54.4l-21.2 48.1v26.7c0 34.5-0.0364 34.5-26.4 34.5-16.1 0-19.1-0.53-22.6-4.02-3.24-3.24-3.8-5.6-2.89-12.2 0.617-4.52 6.42-61.5 12.9-127 6.47-65.1 12.7-122 13.8-126 6.18-23.2 21.4-41.7 42.4-51.5 9.51-4.43 13.8-5.21 28.8-5.21zm-235 114c40.4-0.0309 84.1 11.9 119 32.6 12.9 7.53 15.2 9.65 15.2 14.1 0 4.98-9.03 72.9-10.9 82l-0.912 4.4h-121-121l-1.03-5.38c-0.565-2.96-3.5-23.2-6.53-45-6.35-45.7-7.76-40.8 15.4-54 29.2-16.6 75.8-28.6 111-28.7z" fill="#ca4638"/></svg>
